<svg width="14" height="19" viewBox="0 0 14 19" fill="none" xmlns="http://www.w3.org/2000/svg">
<path d="M1.61538 19H12.3846C13.2754 19 14 18.2509 14 17.3301V5.56641H10.2308C9.34001 5.56641 8.61539 4.81732 8.61539 3.89648V0H1.61538C0.724626 0 0 0.74909 0 1.66992V17.3301C0 18.2509 0.724626 19 1.61538 19ZM3.76923 7.83008H10.2308C10.5284 7.83008 10.7692 8.07905 10.7692 8.38672C10.7692 8.69439 10.5284 8.94336 10.2308 8.94336H3.76923C3.47161 8.94336 3.23077 8.69439 3.23077 8.38672C3.23077 8.07905 3.47161 7.83008 3.76923 7.83008ZM3.76923 10.0566H10.2308C10.5284 10.0566 10.7692 10.3056 10.7692 10.6133C10.7692 10.921 10.5284 11.1699 10.2308 11.1699H3.76923C3.47161 11.1699 3.23077 10.921 3.23077 10.6133C3.23077 10.3056 3.47161 10.0566 3.76923 10.0566ZM3.76923 12.2832H10.2308C10.5284 12.2832 10.7692 12.5322 10.7692 12.8398C10.7692 13.1475 10.5284 13.3965 10.2308 13.3965H3.76923C3.47161 13.3965 3.23077 13.1475 3.23077 12.8398C3.23077 12.5322 3.47161 12.2832 3.76923 12.2832ZM3.76923 14.5098H8.07692C8.37455 14.5098 8.61539 14.7587 8.61539 15.0664C8.61539 15.3741 8.37455 15.623 8.07692 15.623H3.76923C3.47161 15.623 3.23077 15.3741 3.23077 15.0664C3.23077 14.7587 3.47161 14.5098 3.76923 14.5098Z" fill="#F7F6FC"/>
<path d="M10.5395 4H14L10 0V3.46049C10 3.75815 10.2418 4 10.5395 4Z" fill="#F7F6FC"/>
</svg>
