<svg width="92" height="25" viewBox="0 0 92 25" fill="none" xmlns="http://www.w3.org/2000/svg">
<path d="M18.9346 24.6608V0.339213H32.6469L31.6469 2.42537H21.1265V11.4654H30.4549L29.4549 13.5516H21.1265V22.5746H31.6469L30.6469 24.6608H18.9346Z" fill="white"/>
<path d="M36.487 24.6608V0.339213H38.6789V22.5746H48.0073L47.0073 24.6608H36.487Z" fill="white"/>
<path d="M51.4906 24.6608V0.5L53.6826 0.339213V24.5421L51.4906 24.6608Z" fill="white"/>
<path d="M72.6283 19.0299C72.6283 19.8553 72.4697 20.6298 72.1525 21.3535C71.8467 22.0771 71.4219 22.7103 70.8781 23.2531C70.3344 23.7958 69.7 24.2255 68.9751 24.5421C68.2501 24.8474 67.4741 25 66.6472 25H64.9141C64.0871 25 63.3055 24.8474 62.5692 24.5421C61.8442 24.2255 61.2099 23.7958 60.6661 23.2531C60.1224 22.7103 59.6919 22.0771 59.3748 21.3535C59.0689 20.6298 58.916 19.8553 58.916 19.0299V0.5L61.1079 0.339213V19.0299C61.1079 19.5726 61.2099 20.0814 61.4138 20.5563C61.6177 21.0199 61.8952 21.4326 62.2464 21.7944C62.6089 22.145 63.0223 22.422 63.4868 22.6255C63.9625 22.829 64.4723 22.9308 65.016 22.9308H66.5453C67.089 22.9308 67.5931 22.829 68.0575 22.6255C68.5333 22.422 68.9467 22.145 69.2979 21.7944C69.6491 21.4326 69.9266 21.0199 70.1305 20.5563C70.3344 20.0814 70.4364 19.5726 70.4364 19.0299V0.5L72.6283 0.339213V19.0299Z" fill="white"/>
<path d="M91.2172 19.0299C91.2172 19.8553 91.0473 20.6298 90.7074 21.3535C90.3789 22.0771 89.9315 22.7103 89.3651 23.2531C88.81 23.7958 88.1587 24.2255 87.411 24.5421C86.6747 24.8474 85.8931 25 85.0662 25H83.316C82.4891 25 81.7018 24.8474 80.9542 24.5421C80.2179 24.2255 79.5666 23.7958 79.0002 23.2531C78.4451 22.7103 77.9977 22.0771 77.6578 21.3535C77.3293 20.6298 77.1651 19.8553 77.1651 19.0299V18.0631L79.357 17.7069V19.0299C79.357 19.5726 79.4646 20.0814 79.6798 20.5563C79.9064 21.0199 80.2066 21.4326 80.5804 21.7944C80.9542 22.145 81.3847 22.422 81.8718 22.6255C82.3702 22.829 82.8913 22.9308 83.435 22.9308H84.9642C85.508 22.9308 86.0234 22.829 86.5105 22.6255C86.9976 22.422 87.428 22.145 87.8018 21.7944C88.1757 21.4326 88.4702 21.0199 88.6854 20.5563C88.912 20.0814 89.0253 19.5726 89.0253 19.0299V18.3005C89.0253 17.4638 88.861 16.7684 88.5325 16.2144C88.204 15.6603 87.7679 15.1911 87.2241 14.8066C86.6804 14.4109 86.063 14.0773 85.372 13.806C84.6924 13.5346 83.99 13.2632 83.2651 12.9919C82.5401 12.7205 81.8321 12.4208 81.1411 12.0929C80.4614 11.765 79.8497 11.358 79.306 10.8718C78.7623 10.3743 78.3262 9.76933 77.9977 9.05699C77.6691 8.34464 77.5049 7.46834 77.5049 6.42809V5.97015C77.5049 5.14473 77.6578 4.37019 77.9637 3.64654C78.2808 2.92289 78.7113 2.28969 79.255 1.74695C79.7988 1.20421 80.4331 0.78019 81.1581 0.474898C81.8944 0.158299 82.676 0 83.503 0H85.0662C85.8931 0 86.6691 0.158299 87.3941 0.474898C88.119 0.78019 88.7534 1.20421 89.2971 1.74695C89.8409 2.28969 90.2656 2.92289 90.5715 3.64654C90.8887 4.37019 91.0473 5.14473 91.0473 5.97015V6.59769L88.8553 6.95387V5.97015C88.8553 5.42741 88.7534 4.92424 88.5495 4.46065C88.3456 3.98575 88.068 3.57304 87.7169 3.22252C87.3657 2.872 86.9523 2.59498 86.4765 2.39145C86.0121 2.18792 85.508 2.08616 84.9642 2.08616H83.6049C83.0612 2.08616 82.5514 2.18792 82.0757 2.39145C81.6112 2.59498 81.1978 2.872 80.8353 3.22252C80.4841 3.57304 80.2066 3.98575 80.0027 4.46065C79.7988 4.92424 79.6968 5.42741 79.6968 5.97015V6.42809C79.6968 7.20828 79.8611 7.86409 80.1896 8.39552C80.5181 8.92696 80.9542 9.38489 81.4979 9.76934C82.0417 10.1425 82.6534 10.4704 83.333 10.7531C84.024 11.0244 84.732 11.3071 85.457 11.6011C86.182 11.8838 86.8843 12.2004 87.564 12.5509C88.255 12.8901 88.8723 13.3141 89.4161 13.8229C89.9598 14.3204 90.3959 14.931 90.7244 15.6547C91.0529 16.3783 91.2172 17.2603 91.2172 18.3005V19.0299Z" fill="white"/>
<path fill-rule="evenodd" clip-rule="evenodd" d="M9.50029 16.9219L13.3268 24.73L15.6365 24.73L10.6552 14.5653L9.50029 16.9219ZM15.3193 0.27345L15.3193 0.273438H12.9722L9.49818 7.38047L10.6552 9.73884L15.2819 0.27345H15.3193ZM3.70176 0.27345H3.66439L9.47316 12.1606L3.30978 24.73L0.5 24.73L6.66338 12.1606L0.854605 0.273438H3.70176L3.70176 0.27345Z" fill="white"/>
</svg>
